<svg width="70" height="70" viewBox="0 0 70 70" fill="none" xmlns="http://www.w3.org/2000/svg">
<rect x="70" y="70" width="70" height="70" rx="35" transform="rotate(-180 70 70)" fill="#A2A2A2"/>
<path d="M41.7622 32.6891C41.1943 32.6891 40.7452 32.2268 40.7452 31.6721C40.7452 31.1834 40.2565 30.1665 39.4376 29.2815C38.632 28.4231 37.7471 27.9212 37.0075 27.9212C36.4395 27.9212 35.9905 27.4589 35.9905 26.9042C35.9905 26.3495 36.4527 25.8872 37.0075 25.8872C38.3282 25.8872 39.715 26.6004 40.9301 27.8815C42.0659 29.0834 42.7924 30.5759 42.7924 31.6589C42.7924 32.2268 42.3301 32.6891 41.7622 32.6891Z" fill="white"/>
<path d="M46.5301 32.6889C45.9622 32.6889 45.5131 32.2267 45.5131 31.6719C45.5131 26.9833 41.6961 23.1795 37.0206 23.1795C36.4527 23.1795 36.0037 22.7172 36.0037 22.1625C36.0037 21.6078 36.4527 21.1323 37.0074 21.1323C42.8188 21.1323 47.5471 25.8606 47.5471 31.6719C47.5471 32.2267 47.0848 32.6889 46.5301 32.6889Z" fill="white"/>
<path d="M33.0849 38.2361L30.6415 40.6795C30.1264 41.1946 29.3076 41.1946 28.7792 40.6927C28.634 40.5474 28.4887 40.4153 28.3434 40.2701C26.983 38.8965 25.7547 37.4569 24.6585 35.9512C23.5755 34.4455 22.7038 32.9399 22.0698 31.4474C21.4491 29.9418 21.1321 28.5021 21.1321 27.1286C21.1321 26.2304 21.2906 25.3719 21.6076 24.5795C21.9245 23.7738 22.4264 23.0342 23.1264 22.3738C23.9717 21.5418 24.8962 21.1323 25.8736 21.1323C26.2434 21.1323 26.6132 21.2116 26.9434 21.3701C27.2868 21.5286 27.5906 21.7663 27.8283 22.1097L30.8925 26.4286C31.1302 26.7587 31.3019 27.0625 31.4208 27.3531C31.5396 27.6304 31.6057 27.9078 31.6057 28.1587C31.6057 28.4757 31.5132 28.7927 31.3283 29.0965C31.1566 29.4002 30.9057 29.7172 30.5887 30.0342L29.5849 31.0776C29.4396 31.2229 29.3736 31.3946 29.3736 31.6059C29.3736 31.7116 29.3868 31.804 29.4132 31.9097C29.4528 32.0153 29.4925 32.0946 29.5189 32.1738C29.7566 32.6097 30.166 33.1776 30.7472 33.8644C31.3415 34.5512 31.9755 35.2512 32.6623 35.9512C32.7943 36.0833 32.9396 36.2153 33.0717 36.3474C33.6 36.8625 33.6132 37.7078 33.0849 38.2361Z" fill="white"/>
<path d="M47.5074 42.7002C47.5074 43.07 47.4414 43.453 47.3093 43.8229C47.2697 43.9285 47.2301 44.0342 47.1772 44.1398C46.9527 44.6153 46.6621 45.0644 46.2791 45.487C45.6319 46.2002 44.9187 46.7153 44.1131 47.0455C44.0999 47.0455 44.0867 47.0587 44.0735 47.0587C43.2942 47.3757 42.4489 47.5474 41.5376 47.5474C40.1904 47.5474 38.7508 47.2304 37.2319 46.5832C35.7131 45.9361 34.1942 45.0644 32.6885 43.9681C32.1735 43.5851 31.6584 43.2021 31.1697 42.7927L35.4885 38.4738C35.8584 38.7512 36.1885 38.9625 36.4659 39.1078C36.5319 39.1342 36.6112 39.1738 36.7036 39.2134C36.8093 39.253 36.915 39.2663 37.0338 39.2663C37.2584 39.2663 37.4301 39.187 37.5753 39.0417L38.5791 38.0512C38.9093 37.721 39.2263 37.47 39.5301 37.3115C39.8338 37.1266 40.1376 37.0342 40.4678 37.0342C40.7187 37.0342 40.9829 37.087 41.2734 37.2059C41.564 37.3247 41.8678 37.4964 42.198 37.721L46.5697 40.8247C46.9131 41.0625 47.1508 41.3398 47.2961 41.67C47.4282 42.0002 47.5074 42.3304 47.5074 42.7002Z" fill="white"/>
</svg>
