<svg width="107" height="107" viewBox="0 0 107 107" fill="none" xmlns="http://www.w3.org/2000/svg">
<g clip-path="url(#clip0_2049_63)">
<path d="M26.2488 35.486C25.5149 33.0007 24.8102 30.5113 24.2806 28.1261C20.7988 26.0661 18.4302 22.3174 18.4302 17.9848C18.4302 11.4673 23.7302 6.17147 30.2436 6.17147C36.757 6.17147 42.057 11.4714 42.057 17.9848C42.057 18.8814 41.9361 19.7445 41.7484 20.5827C42.8785 23.0721 43.7917 25.8743 44.5923 28.7224C46.844 25.72 48.2285 22.0297 48.2285 17.9848C48.2285 8.04794 40.1805 0 30.2436 0C20.3067 0 12.2629 8.04794 12.2629 17.9848C12.2629 26.5415 18.2468 33.6679 26.2488 35.486Z" fill="#F6F5FA"/>
<path d="M13.8267 78.0651C18.2593 73.2739 23.234 75.1503 29.8934 76.1636C35.6145 77.0435 41.2481 75.4381 40.8728 72.3482C40.2806 67.3484 39.4467 65.1134 37.5494 58.6375C36.0357 53.4876 33.1626 44.2054 30.5481 35.3318C27.0453 23.4601 26.032 17.9475 30.694 16.5714C35.7188 15.1077 38.6002 22.2466 41.2105 32.146C44.1837 43.4131 45.7474 48.3878 46.6231 48.1251C48.166 47.6831 46.056 42.8627 50.0924 41.6743C55.138 40.2065 56.1138 44.1512 57.5274 43.7551C58.941 43.3297 58.4615 39.335 62.4854 38.159C66.5303 36.9915 68.561 41.9703 70.229 41.4741C71.8802 40.9862 71.8427 39.189 74.3363 38.476C76.8341 37.7337 86.2331 41.9411 91.6123 60.318C98.3634 83.4235 90.7575 87.7185 93.0634 95.5412L62.9274 107C60.488 101.133 52.9322 100.699 46.2478 96.959C39.5134 93.1685 34.939 85.7836 17.3878 86.1422C10.7868 86.2757 11.0996 81.0132 13.8267 78.0651Z" fill="white"/>
</g>
<defs>
<clipPath id="clip0_2049_63">
<rect width="107" height="107" fill="white"/>
</clipPath>
</defs>
</svg>
