<svg width="25" height="24" viewBox="0 0 25 24" fill="none" xmlns="http://www.w3.org/2000/svg">
<path d="M12.6601 10.87C12.5601 10.86 12.4401 10.86 12.3301 10.87C9.95006 10.79 8.06006 8.84 8.06006 6.44C8.06006 3.99 10.0401 2 12.5001 2C14.9501 2 16.9401 3.99 16.9401 6.44C16.9301 8.84 15.0401 10.79 12.6601 10.87Z" stroke="#A2A2A2" stroke-width="1.5" stroke-linecap="round" stroke-linejoin="round"/>
<path d="M7.65997 14.56C5.23997 16.18 5.23997 18.82 7.65997 20.43C10.41 22.27 14.92 22.27 17.67 20.43C20.09 18.81 20.09 16.17 17.67 14.56C14.93 12.73 10.42 12.73 7.65997 14.56Z" stroke="#A2A2A2" stroke-width="1.5" stroke-linecap="round" stroke-linejoin="round"/>
<circle cx="12.5" cy="6.5" r="4.5" fill="#A2A2A2"/>
<path d="M19.5 17.5C19.5 19.9853 14.9853 22 12.5 22C10.0147 22 6.5 19.9853 6.5 17.5C6.5 15.0147 10.0147 13 12.5 13C14.9853 13 19.5 15.0147 19.5 17.5Z" fill="#A2A2A2"/>
</svg>
