<svg width="370" height="311" viewBox="0 0 370 311" fill="none" xmlns="http://www.w3.org/2000/svg">
<g clip-path="url(#clip0_6_445)">
<path d="M332.347 124.382L320.903 118.26L321.76 117.801L333.204 123.924L332.347 124.382Z" fill="#CBCBCB"/>
<path d="M322.365 124.382L321.509 123.924L332.953 117.801L333.809 118.26L322.365 124.382Z" fill="#CBCBCB"/>
<path d="M237.19 76.9292L236.637 78.0146L239.87 79.683L240.423 78.5976L237.19 76.9292Z" fill="#CBCBCB"/>
<path d="M304.217 112.89L297.782 109.57L298.334 108.484L304.769 111.805L304.217 112.89ZM291.347 106.249L284.913 102.928L285.465 101.843L291.9 105.164L291.347 106.249ZM278.478 99.6073L272.043 96.2867L272.596 95.2012L279.03 98.5219L278.478 99.6073ZM265.609 92.9659L259.174 89.6453L259.726 88.5598L266.161 91.8805L265.609 92.9659ZM252.74 86.3246L246.305 83.0039L246.857 81.9185L253.292 85.2391L252.74 86.3246Z" fill="#CBCBCB"/>
<path d="M311.203 115.126L310.651 116.211L313.884 117.879L314.436 116.794L311.203 115.126Z" fill="#CBCBCB"/>
<path d="M67.1078 158.566C67.1078 158.947 67.0956 159.324 67.0711 159.699C66.9336 161.859 66.3918 163.973 65.474 165.931C65.4669 165.947 65.4586 165.963 65.4515 165.978C65.4088 166.069 65.3649 166.16 65.3199 166.25C65.0469 166.803 64.7441 167.341 64.4128 167.862C62.8996 170.25 60.8255 172.226 58.3738 173.616C55.9221 175.005 53.1683 175.765 50.3557 175.828L50.5253 185.648L52.7365 184.476L53.1314 185.232L50.5419 186.605L50.8585 204.843L50.862 205.087L49.1523 205.47L49.1558 205.225L49.6941 175.83C47.4303 175.797 45.1955 175.312 43.1194 174.402C41.0433 173.492 39.1674 172.176 37.6005 170.53C37.4926 170.418 37.3859 170.302 37.2815 170.188L37.2697 170.174C35.9642 168.741 34.9083 167.095 34.1467 165.307C34.1633 165.326 34.1811 165.344 34.1977 165.363C32.4763 161.31 32.3596 156.746 33.8714 152.608C35.3831 148.471 38.409 145.072 42.3288 143.108C42.3881 143.078 42.4486 143.05 42.5079 143.02C46.3854 141.139 50.823 140.794 54.9412 142.053C59.0594 143.312 62.5576 146.083 64.7424 149.818C64.8468 149.995 64.9476 150.175 65.0448 150.356C66.402 152.876 67.1112 155.699 67.1078 158.566Z" fill="#E5E5E5"/>
<path d="M64.7999 165.988C77.2112 165.988 87.2727 155.856 87.2727 143.356C87.2727 130.857 77.2112 120.724 64.7999 120.724C52.3885 120.724 42.3271 130.857 42.3271 143.356C42.3271 155.856 52.3885 165.988 64.7999 165.988Z" fill="#E5E5E5"/>
<path opacity="0.2" d="M48.2066 128.239C46.1104 133.177 45.8261 138.706 47.4044 143.835C48.9827 148.965 52.3208 153.363 56.8222 156.242C61.3236 159.122 66.695 160.296 71.9766 159.554C77.2581 158.812 82.1057 156.203 85.653 152.193C84.3724 155.21 82.4559 157.91 80.0361 160.107C77.6164 162.304 74.7513 163.945 71.6393 164.917C68.5273 165.888 65.2429 166.166 62.0136 165.732C58.7842 165.298 55.6872 164.162 52.9371 162.403C50.187 160.643 47.8496 158.303 46.0867 155.544C44.3238 152.784 43.1777 149.672 42.7277 146.423C42.2778 143.173 42.5347 139.864 43.4807 136.724C44.4268 133.584 46.0393 130.689 48.2066 128.239Z" fill="#252525"/>
<path d="M66.0155 206.406L63.7204 205.758L63.7252 205.509L64.413 167.862L64.4474 165.985L64.4481 165.931L64.5684 159.353L64.7424 149.82V149.818L64.8607 143.356H64.924L65.0451 150.357L65.2026 159.469L65.3154 165.935V165.982L65.3202 166.249V166.251L65.5382 178.854L65.5609 180.106L66.0114 206.155L66.0155 206.406Z" fill="#252525"/>
<path d="M68.4358 177.316L64.7209 179.286L65.2387 180.276L68.9535 178.307L68.4358 177.316Z" fill="#252525"/>
<path d="M356.113 70.1094C327.749 68.4205 299.299 68.8609 270.999 71.427C257.359 72.6687 243.503 74.0098 230.115 77.0063C219.331 79.4198 206.816 83.4991 200.097 93.0003C198.69 94.9146 197.742 97.1309 197.326 99.4758C196.911 101.821 197.04 104.23 197.703 106.517C199.305 111.933 203.291 116.441 207.535 119.973C217.303 128.1 229.423 132.829 240.25 139.286C260.016 151.075 278.107 166.965 289.719 187.15C294.829 196.032 299.689 207.843 294 217.63C288.426 227.219 275.983 230.522 265.835 232.08C253.116 234.032 240.015 233.503 227.243 232.409C213.241 231.094 199.317 229.04 185.528 226.256C158.516 221.032 131.749 214.388 104.361 211.366C90.6284 209.739 76.7802 209.336 62.9773 210.161C50.5116 211.007 37.9393 212.993 26.2287 217.52C17.2048 221.008 7.58567 226.286 2.71128 235.087C-1.98741 243.572 -0.154774 253.356 4.96152 261.184C11.1175 270.602 20.7168 277.057 30.697 281.774C42.0602 287.145 54.2143 290.626 66.384 293.587C72.5561 295.089 78.7616 296.446 84.9676 297.797C86.2623 298.079 86.8155 296.076 85.5161 295.793C73.0011 293.07 60.4499 290.337 48.2456 286.395C36.9519 282.746 25.3943 278.073 16.1457 270.412C8.66363 264.214 1.5497 255.162 1.99132 244.869C2.43652 234.493 11.0806 227.249 19.553 222.79C30.1412 217.217 42.1708 214.502 53.9584 213.084C67.4555 211.569 81.067 211.383 94.5999 212.527C121.923 214.621 148.636 220.889 175.426 226.357C201.451 231.668 228.289 236.587 254.96 235.224C265.532 234.684 276.859 233.159 286.193 227.785C290.466 225.324 294.32 221.855 296.492 217.339C298.449 213.043 299.068 208.25 298.267 203.593C296.753 193.362 290.719 183.876 284.699 175.727C278.1 166.889 270.445 158.902 261.906 151.949C252.536 144.354 242.432 137.725 231.747 132.163C226.081 129.158 220.335 126.269 214.935 122.789C209.757 119.453 204.65 115.438 201.489 110.022C198.754 105.337 198.252 99.9904 201.101 95.2391C203.981 90.4334 208.945 87.0818 213.839 84.6326C225.632 78.7315 239.342 77.1519 252.245 75.5333C279.948 72.07 307.868 70.668 335.776 71.3389C342.56 71.4996 349.339 71.7824 356.113 72.1873C357.44 72.2659 357.435 70.1877 356.113 70.1093V70.1094Z" fill="#252525"/>
<path d="M338.119 3.49945L342.404 0.0483324C339.076 -0.321498 337.708 1.50666 337.148 2.95366C334.548 1.86624 331.717 3.29135 331.717 3.29135L340.29 6.42558C339.857 5.26225 339.104 4.24721 338.119 3.49945Z" fill="#252525"/>
<path d="M317.326 14.4247L321.611 10.9736C318.282 10.6038 316.915 12.4319 316.355 13.8789C313.755 12.7915 310.924 14.2167 310.924 14.2167L319.496 17.3509C319.064 16.1875 318.311 15.1725 317.326 14.4247Z" fill="#252525"/>
<path d="M338.119 31.724L342.404 28.2729C339.076 27.9031 337.708 29.7313 337.148 31.1783C334.548 30.0908 331.717 31.516 331.717 31.516L340.29 34.6502C339.857 33.4869 339.104 32.4718 338.119 31.724Z" fill="#252525"/>
<path d="M273.888 36.8376C281.017 36.8376 286.797 31.0172 286.797 23.8373C286.797 16.6574 281.017 10.8369 273.888 10.8369C266.759 10.8369 260.98 16.6574 260.98 23.8373C260.98 31.0172 266.759 36.8376 273.888 36.8376Z" fill="#FF6583"/>
<path d="M314.367 63.8972H251.041C250.962 63.8982 250.883 63.8919 250.804 63.8783L280.755 11.6342C280.938 11.3088 281.203 11.0381 281.524 10.8497C281.845 10.6613 282.209 10.562 282.581 10.562C282.952 10.562 283.316 10.6613 283.637 10.8497C283.958 11.0381 284.223 11.3088 284.406 11.6342L304.505 46.6929L305.468 48.3702L314.367 63.8972Z" fill="#FF3951"/>
<path d="M349.624 63.8976H294.854L305.467 48.3718L306.23 47.253L320.06 27.0202C320.305 26.7106 320.611 26.4564 320.96 26.274C321.308 26.0916 321.691 25.9851 322.083 25.9616C322.475 25.938 322.868 25.9978 323.236 26.1371C323.603 26.2764 323.938 26.4922 324.217 26.7702C324.289 26.8492 324.355 26.9327 324.416 27.0202L349.624 63.8976Z" fill="#FF3951"/>
<path d="M259.277 183.72C265.279 186.741 268.934 190.732 268.934 195.108C268.934 204.537 251.993 212.18 231.095 212.18C222.01 212.18 213.674 210.734 207.152 208.326C214.08 211.814 224.136 214.01 235.333 214.01C256.231 214.01 273.172 206.366 273.172 196.938C273.172 191.608 267.757 186.85 259.277 183.72Z" fill="#F1F1F1"/>
<path d="M272.628 190.196C279.401 193.606 283.525 198.108 283.525 203.047C283.525 213.686 264.409 222.311 240.829 222.311C230.577 222.311 221.171 220.679 213.811 217.962C221.629 221.897 232.976 224.375 245.611 224.375C269.191 224.375 288.307 215.75 288.307 205.111C288.307 199.098 282.197 193.729 272.628 190.196Z" fill="#F1F1F1"/>
<path d="M254.167 186.572C258.396 188.701 260.971 191.512 260.971 194.596C260.971 201.239 249.035 206.624 234.313 206.624C228.577 206.698 222.871 205.78 217.444 203.908C222.325 206.365 229.41 207.912 237.298 207.912C252.021 207.912 263.956 202.527 263.956 195.885C263.956 192.13 260.142 188.778 254.167 186.572Z" fill="#F1F1F1"/>
<path d="M194.749 185.354C194.749 185.354 195.679 199.033 222.317 199.033C248.955 199.033 256.908 185.354 256.908 185.354H194.749Z" fill="#252525"/>
<path d="M232.559 149.463C228.714 146.52 223.887 145.191 219.09 145.752C223.377 146.793 227.163 149.321 229.784 152.893C232.404 156.465 233.692 160.852 233.421 165.285C233.15 169.718 231.337 173.913 228.301 177.134C225.265 180.355 221.199 182.396 216.818 182.899C221.009 183.918 225.42 183.453 229.311 181.581C233.201 179.71 236.333 176.547 238.18 172.623C240.027 168.7 240.477 164.256 239.453 160.038C238.43 155.82 235.995 152.085 232.559 149.463Z" fill="#252525"/>
<path d="M223.83 143.283H222.014V186.823H223.83V143.283Z" fill="#252525"/>
<path d="M343.193 110.933L343.183 110.916L343.159 109.853L348.848 101.533L343.165 109.057L343.145 109.281L342.95 100.777L347.865 92.1517L342.936 99.2835L342.988 81.6656L342.988 81.6069L342.986 81.6646L342.66 95.5499L338.181 89.9097L342.645 96.7462L342.547 104.353L338.426 96.929L342.532 105.471L342.478 109.701L342.327 121.419L342.316 122.294C342.696 122.297 343.072 122.291 343.443 122.275L343.186 111.02L343.193 110.933Z" fill="#CBCBCB"/>
<path d="M315.949 114.591L315.939 114.574L315.915 113.511L321.605 105.191L315.922 112.715L315.901 112.94L315.707 104.436L320.621 95.8099L315.693 102.942L315.744 85.3238L315.744 85.2651L315.742 85.3228L315.416 99.2081L310.937 93.5679L315.402 100.404L315.304 108.011L311.182 100.587L315.289 109.129L315.234 113.359L315.083 125.077L315.073 125.953C315.452 125.955 315.828 125.949 316.2 125.933L315.942 114.678L315.949 114.591Z" fill="#CBCBCB"/>
<path d="M329.268 103.007L329.258 102.99L329.234 101.926L334.924 93.6065L329.241 101.13L329.22 101.355L329.026 92.8512L333.94 84.2254L329.012 91.3572L329.063 73.7393L329.063 73.6807L329.062 73.7383L328.735 87.6236L324.256 81.9834L328.721 88.8199L328.623 96.4264L324.501 89.0027L328.608 97.5447L328.553 101.774L328.403 113.492L328.392 114.368C328.771 114.371 329.147 114.365 329.519 114.349L329.261 103.094L329.268 103.007Z" fill="#CBCBCB"/>
<path d="M104.261 305.467C108.273 305.467 111.526 302.191 111.526 298.151C111.526 294.11 108.273 290.834 104.261 290.834C100.249 290.834 96.9961 294.11 96.9961 298.151C96.9961 302.191 100.249 305.467 104.261 305.467Z" fill="#FF3951"/>
<rect x="169" y="75" width="100" height="100" fill="#D9D9D9"/>
</g>
<defs>
<clipPath id="clip0_6_445">
<rect width="370" height="311" fill="white"/>
</clipPath>
</defs>
</svg>
