<svg width="28" height="28" viewBox="0 0 28 28" fill="none" xmlns="http://www.w3.org/2000/svg">
<path d="M24.1111 4.11084C24.7244 4.11084 25.2222 4.60862 25.2222 5.22195V20.7775C25.2222 21.3908 24.7244 21.8886 24.1111 21.8886H7.95L3 25.7775V5.22195C3 4.60862 3.49778 4.11084 4.11111 4.11084H24.1111ZM23 6.33306H5.22222V21.2053L7.18111 19.6664H23V6.33306ZM12.4611 9.01306L12.9578 9.77751C11.1044 10.7808 11.1367 12.3908 11.1367 12.7375C11.3089 12.7153 11.49 12.7108 11.67 12.7275C12.6722 12.8208 13.4622 13.6442 13.4622 14.6664C13.4622 15.7397 12.5911 16.6108 11.5178 16.6108C10.9211 16.6108 10.3511 16.3386 9.99111 15.9553C9.41889 15.3486 9.11111 14.6664 9.11111 13.5608C9.11111 11.6164 10.4756 9.87417 12.4611 9.01306V9.01306ZM18.0167 9.01306L18.5133 9.77751C16.66 10.7808 16.6922 12.3908 16.6922 12.7375C16.8644 12.7153 17.0456 12.7108 17.2256 12.7275C18.2278 12.8208 19.0178 13.6442 19.0178 14.6664C19.0178 15.7397 18.1467 16.6108 17.0733 16.6108C16.4767 16.6108 15.9067 16.3386 15.5467 15.9553C14.9744 15.3486 14.6667 14.6664 14.6667 13.5608C14.6667 11.6164 16.0311 9.87417 18.0167 9.01306V9.01306Z" fill="black"/>
</svg>
