<svg width="28" height="28" viewBox="0 0 28 28" fill="none" xmlns="http://www.w3.org/2000/svg">
<path d="M21.8889 8.66667H27.4444V10.8889H21.8889V8.66667ZM19.6667 14.2222H27.4444V16.4444H19.6667V14.2222ZM23 19.7778H27.4444V22H23V19.7778ZM3 25.3333C3 22.9759 3.93651 20.7149 5.6035 19.0479C7.27049 17.3809 9.53141 16.4444 11.8889 16.4444C14.2464 16.4444 16.5073 17.3809 18.1743 19.0479C19.8413 20.7149 20.7778 22.9759 20.7778 25.3333H18.5556C18.5556 23.5652 17.8532 21.8695 16.6029 20.6193C15.3527 19.369 13.657 18.6667 11.8889 18.6667C10.1208 18.6667 8.42509 19.369 7.17484 20.6193C5.9246 21.8695 5.22222 23.5652 5.22222 25.3333H3ZM11.8889 15.3333C8.20556 15.3333 5.22222 12.35 5.22222 8.66667C5.22222 4.98333 8.20556 2 11.8889 2C15.5722 2 18.5556 4.98333 18.5556 8.66667C18.5556 12.35 15.5722 15.3333 11.8889 15.3333ZM11.8889 13.1111C14.3444 13.1111 16.3333 11.1222 16.3333 8.66667C16.3333 6.21111 14.3444 4.22222 11.8889 4.22222C9.43333 4.22222 7.44444 6.21111 7.44444 8.66667C7.44444 11.1222 9.43333 13.1111 11.8889 13.1111Z" fill="black"/>
</svg>
