<svg width="28" height="28" viewBox="0 0 28 28" fill="none" xmlns="http://www.w3.org/2000/svg">
<path d="M21.3333 11.6662L26.2222 23.8885H23.8278L22.4933 20.5551H17.9489L16.6167 23.8885H14.2233L19.1111 11.6662H21.3333ZM11.8889 2.77734V4.99957H18.5556V7.22179H16.3689C15.5118 9.80187 14.1439 12.1829 12.3467 14.2229C13.1481 14.938 14.0174 15.5733 14.9422 16.1196L14.1078 18.2062C12.9139 17.5291 11.7973 16.724 10.7778 15.8051C8.79287 17.6015 6.44227 18.9464 3.88778 19.7473L3.29222 17.604C5.48093 16.9061 7.4978 15.7544 9.21111 14.224C7.94299 12.7884 6.88674 11.1788 6.07444 9.44401H8.56333C9.18261 10.5872 9.92518 11.6591 10.7778 12.6407C12.1668 11.0397 13.2614 9.20546 14.0111 7.2229L3 7.22179V4.99957H9.66667V2.77734H11.8889ZM20.2222 14.8718L18.8367 18.3329H21.6056L20.2222 14.8718Z" fill="black"/>
</svg>
