<svg width="23" height="24" viewBox="0 0 23 24" fill="none" xmlns="http://www.w3.org/2000/svg">
<path d="M20 17.3332H22.2222V19.5554H0V17.3332H2.22222V9.55539C2.22222 7.19791 3.15873 4.93699 4.82572 3.27C6.49271 1.60301 8.75363 0.666504 11.1111 0.666504C13.4686 0.666504 15.7295 1.60301 17.3965 3.27C19.0635 4.93699 20 7.19791 20 9.55539V17.3332ZM17.7778 17.3332V9.55539C17.7778 7.78728 17.0754 6.09159 15.8252 4.84135C14.5749 3.59111 12.8792 2.88873 11.1111 2.88873C9.343 2.88873 7.64731 3.59111 6.39707 4.84135C5.14682 6.09159 4.44444 7.78728 4.44444 9.55539V17.3332H17.7778ZM7.77778 21.7776H14.4444V23.9998H7.77778V21.7776Z" fill="black"/>
</svg>
