<svg width="28" height="28" viewBox="0 0 28 28" fill="none" xmlns="http://www.w3.org/2000/svg">
<path d="M7.44442 9.77778V8.66667C7.44442 6.89856 8.1468 5.20286 9.39704 3.95262C10.6473 2.70238 12.343 2 14.1111 2C15.8792 2 17.5749 2.70238 18.8251 3.95262C20.0754 5.20286 20.7777 6.89856 20.7777 8.66667V9.77778H23C23.2947 9.77778 23.5773 9.89484 23.7856 10.1032C23.994 10.3116 24.1111 10.5942 24.1111 10.8889V24.2222C24.1111 24.5169 23.994 24.7995 23.7856 25.0079C23.5773 25.2163 23.2947 25.3333 23 25.3333H5.2222C4.92751 25.3333 4.64489 25.2163 4.43652 25.0079C4.22815 24.7995 4.11108 24.5169 4.11108 24.2222V10.8889C4.11108 10.5942 4.22815 10.3116 4.43652 10.1032C4.64489 9.89484 4.92751 9.77778 5.2222 9.77778H7.44442ZM21.8889 12H6.33331V23.1111H21.8889V12ZM13 18.3689C12.5763 18.1243 12.2452 17.7467 12.058 17.2948C11.8708 16.8428 11.838 16.3418 11.9646 15.8692C12.0912 15.3967 12.3702 14.9792 12.7583 14.6814C13.1464 14.3836 13.6219 14.2222 14.1111 14.2222C14.6003 14.2222 15.0758 14.3836 15.4639 14.6814C15.852 14.9792 16.131 15.3967 16.2576 15.8692C16.3842 16.3418 16.3514 16.8428 16.1641 17.2948C15.9769 17.7467 15.6458 18.1243 15.2222 18.3689V20.8889H13V18.3689ZM9.66664 9.77778H18.5555V8.66667C18.5555 7.48793 18.0873 6.35746 17.2538 5.52397C16.4203 4.69047 15.2898 4.22222 14.1111 4.22222C12.9323 4.22222 11.8019 4.69047 10.9684 5.52397C10.1349 6.35746 9.66664 7.48793 9.66664 8.66667V9.77778Z" fill="black"/>
</svg>
