<svg width="28" height="28" viewBox="0 0 28 28" fill="none" xmlns="http://www.w3.org/2000/svg">
<g clip-path="url(#clip0_2086_122)">
<path d="M3 4.99201C3.00203 4.7002 3.11878 4.42091 3.32501 4.21447C3.53125 4.00803 3.81042 3.891 4.10222 3.88867H24.12C24.7289 3.88867 25.2222 4.38312 25.2222 4.99201V22.7853C25.2202 23.0771 25.1034 23.3564 24.8972 23.5629C24.691 23.7693 24.4118 23.8863 24.12 23.8887H4.10222C3.80979 23.8884 3.52944 23.772 3.32277 23.5651C3.11609 23.3582 3 23.0778 3 22.7853V4.99201ZM5.22222 6.11089V21.6664H23V6.11089H5.22222ZM7.44444 8.33312H14.1111V14.9998H7.44444V8.33312ZM9.66667 10.5553V12.7776H11.8889V10.5553H9.66667ZM7.44444 17.222H20.7778V19.4442H7.44444V17.222ZM16.3333 8.33312H20.7778V10.5553H16.3333V8.33312ZM16.3333 12.7776H20.7778V14.9998H16.3333V12.7776Z" fill="black"/>
</g>
<defs>
<clipPath id="clip0_2086_122">
<rect width="26.6667" height="26.6667" fill="white" transform="translate(0.777832 0.555176)"/>
</clipPath>
</defs>
</svg>
