<svg width="28" height="28" viewBox="0 0 28 28" fill="none" xmlns="http://www.w3.org/2000/svg">
<path d="M13 2.77734C17.52 2.77734 21.2511 6.15068 21.8155 10.5162L24.3155 14.4485C24.48 14.7073 24.4466 15.0929 24.0655 15.2573L21.8889 16.1885V19.444C21.8889 20.6718 20.8944 21.6662 19.6666 21.6662H17.4455L17.4444 24.9996H7.44442V20.8951C7.44442 19.584 6.95997 18.3429 6.0622 17.2229C4.84108 15.7007 4.11108 13.7685 4.11108 11.6662C4.11108 6.75734 8.09108 2.77734 13 2.77734ZM13 4.99957C9.31775 4.99957 6.33331 7.98401 6.33331 11.6662C6.33331 13.2051 6.85331 14.6585 7.79553 15.8329C9.01108 17.3485 9.66664 19.074 9.66664 20.8951V22.7773H15.2222L15.2244 19.444H19.6666V14.724L21.3889 13.9862L19.6744 11.2918L19.6111 10.8007C19.1844 7.50068 16.36 4.99957 13 4.99957ZM12.4111 9.18068L13 9.76957L13.5889 9.18068C14.3489 8.42068 15.58 8.42068 16.3389 9.18068C17.0989 9.93957 17.0989 11.1707 16.3389 11.9296L13 15.2696L9.66108 11.9296C8.90108 11.1707 8.90108 9.93957 9.66108 9.18068C10.42 8.42068 11.6511 8.42068 12.4111 9.18068Z" fill="black"/>
</svg>
