<svg width="26" height="21" viewBox="0 0 26 21" fill="none" xmlns="http://www.w3.org/2000/svg">
<path fill-rule="evenodd" clip-rule="evenodd" d="M12.3067 0H7.64316L6.59316 3.15H0V17.85H4.23721C4.49196 19.6309 6.0236 21 7.875 21C9.7264 21 11.2581 19.6309 11.5128 17.85H14.7372C14.9919 19.6309 16.5236 21 18.375 21C20.2264 21 21.7581 19.6309 22.0128 17.85H25.2V10.988L21.7788 8.7073L18.4444 3.15H13.3567L12.3067 0ZM11.1432 3.15L10.7932 2.1H9.15674L8.80674 3.15H11.1432ZM21.6964 15.75H23.1V12.112L20.6821 10.5H12.6V5.25H2.1V15.75H4.55365C5.14347 14.5083 6.40899 13.65 7.875 13.65C9.34101 13.65 10.6065 14.5083 11.1964 15.75H15.0536C15.6435 14.5083 16.9091 13.65 18.375 13.65C19.8409 13.65 21.1065 14.5083 21.6964 15.75ZM17.2556 5.25L19.1456 8.4H14.7V5.25H17.2556ZM9.45 17.325C9.45 18.1948 8.74485 18.9 7.875 18.9C7.00515 18.9 6.3 18.1948 6.3 17.325C6.3 16.4552 7.00515 15.75 7.875 15.75C8.74485 15.75 9.45 16.4552 9.45 17.325ZM19.95 17.325C19.95 18.1948 19.2448 18.9 18.375 18.9C17.5052 18.9 16.8 18.1948 16.8 17.325C16.8 16.4552 17.5052 15.75 18.375 15.75C19.2448 15.75 19.95 16.4552 19.95 17.325ZM6.3 6.3V8.4H4.2V10.5H6.3V12.6H8.4V10.5H10.5V8.4H8.4V6.3H6.3Z" fill="black"/>
</svg>
